HIERARCHY
ROOT pelvis
{
  OFFSET 0 100 0
  CHANNELS 6 Xposition Yposition Zposition Zrotation Xrotation Yrotation
  JOINT pelvis_right_femur
  {
    OFFSET -10.78128 -3.44521 -0.5502486
    CHANNELS 3 Zrotation Xrotation Yrotation
    JOINT right_femur_tibia
    {
      OFFSET -0.8047443 -44.0398 -0.1307829
      CHANNELS 3 Zrotation Xrotation Yrotation
      JOINT right_tibia_foot
      {
        OFFSET 3.006224 -47.83518 -5
        CHANNELS 3 Zrotation Xrotation Yrotation
        End Site
        {
          OFFSET 0 -5 15
        }
      }
    }
  }
  JOINT pelvis_left_femur
  {
    OFFSET 10.78128 -3.44521 -0.5502486
    CHANNELS 3 Zrotation Xrotation Yrotation
    JOINT left_femur_tibia
    {
      OFFSET 0.8047443 -44.0398 -0.1307829
      CHANNELS 3 Zrotation Xrotation Yrotation
      JOINT left_tibia_foot
      {
        OFFSET -4.370144 -48.10324 -4.275266
        CHANNELS 3 Zrotation Xrotation Yrotation
        End Site
        {
          OFFSET 0 -5 15
        }
      }
    }
  }
  JOINT pelvis_spine1
  {
    OFFSET 0 6.468898 -3.129235
    CHANNELS 3 Zrotation Xrotation Yrotation
    JOINT spine1
    {
      OFFSET 0 23.15396 4.99043
      CHANNELS 3 Zrotation Xrotation Yrotation
      JOINT spine2
      {
        OFFSET 0 20.79997 -5.064912
        CHANNELS 3 Zrotation Xrotation Yrotation
        JOINT neck
        {
          OFFSET 0 14.38658 9.616178
          CHANNELS 3 Zrotation Xrotation Yrotation
          End Site
          {
            OFFSET 0 20 0
          }
        }
      }
      JOINT right_manubrium
      {
        OFFSET -5.722621 16.35077 3.967754
        CHANNELS 3 Zrotation Xrotation Yrotation
        JOINT right_clavicle
        {
          OFFSET -13.16364 1.694482 -4.693211
          CHANNELS 3 Zrotation Xrotation Yrotation
          JOINT right_humerus
          {
            OFFSET -28.5034 -0.3100689 -2.792744
            CHANNELS 3 Zrotation Xrotation Yrotation
            JOINT right_radius
            {
              OFFSET -25.15693 0.02248979 -1.271978
              CHANNELS 3 Zrotation Xrotation Yrotation
              End Site
              {
                OFFSET -15 0 0
              }
            }
          }
        }
      }
      JOINT left_manubrium
      {
        OFFSET 5.722621 16.35077 3.967754
        CHANNELS 3 Zrotation Xrotation Yrotation
        JOINT left_clavicle
        {
          OFFSET 13.16364 1.694482 -4.693211
          CHANNELS 3 Zrotation Xrotation Yrotation
          JOINT left_humerus
          {
            OFFSET 29.39168 -1.063119 -2.237045
            CHANNELS 3 Zrotation Xrotation Yrotation
            JOINT left_radius
            {
              OFFSET 24.59957 -0.9528479 0.9047498
              CHANNELS 3 Zrotation Xrotation Yrotation
              End Site
              {
                OFFSET 15 -0 -0
              }
            }
          }
        }
      }
    }
  }
}
MOTION
Frames: 13
Frame Time: 0.0416666666667
-1094.758 103.7595 2754.332 -6.102059 -7.008863 -53.92298 -0.5555677 12.32002 2.964874 -0 46.93065 -0 -1.280362 3.313595 -3.505074 -4.690896 -11.58148 -8.834628 -0 22.49968 -0 -4.613574 -11.368 19.56086 -1.32916 2.071691 6.862203 -1.03255 7.588823 -1.896836 3.381453 24.06021 3.892345 0.8489534 -15.2077 7.882228 -0.6953869 -19.21274 9.498282 83.32623 20.0412 -4.383108 -0 0 22.12563 -21.16591 8.321573 11.166 3.781701 -12.47342 -2.483924 -94.38686 25.36675 23.59661 0 0 -4.17023 -3.853027 6.490464 17.64056
-1099.318 104.9436 2758.794 -6.400856 -7.214366 -53.03204 -0.3576326 6.865876 2.383925 -0 51.96896 -0 -1.945834 5.179194 -4.208635 -5.267676 -6.690944 -9.283555 -0 21.7598 -0 -3.990956 -12.55385 19.04477 -1.41473 2.018 6.222204 -0.8625625 7.647047 -2.378119 3.373435 24.37472 3.896293 0.8534965 -15.00906 7.90839 -0.6169304 -18.34463 9.466357 84.40006 20.53269 -6.142183 -0 0 19.90118 -20.58095 8.276667 10.53486 3.93703 -13.39932 -2.741445 -92.99686 25.67691 21.16122 0 0 -5.930666 -2.994684 7.20866 16.61288
-1103.578 106.0339 2762.924 -6.613222 -7.14918 -51.98646 -0.05046706 0.5246983 1.726122 -0 53.1142 -0 -2.692205 5.254732 -4.866315 -5.452895 -1.827421 -9.486746 -0 19.92925 -0 -3.259541 -13.74766 18.62541 -1.520405 1.927234 5.487856 -0.6507561 7.72132 -2.954174 3.372077 24.67374 3.885536 0.8628582 -14.81148 7.919423 -0.5179196 -17.37034 9.443435 85.61273 21.00346 -8.184266 -0 0 17.41316 -19.9333 8.261955 9.843183 4.142491 -14.48602 -3.0222 -91.33565 25.92671 18.28503 0 0 -8.116555 -1.974639 8.023927 15.38362
-1107.635 106.7243 2766.81 -6.618002 -6.945147 -50.94175 0.1133547 -5.799713 0.9503024 -0 49.60781 -0 -3.362866 4.121333 -5.375141 -5.403756 2.574719 -9.435991 -0 17.636 -0 -2.584013 -14.9874 18.10857 -1.636873 1.800686 4.696258 -0.4018151 7.804146 -3.592458 3.380414 24.92943 3.854458 0.8791859 -14.64727 7.908111 -0.4120331 -16.35601 9.43322 86.88942 21.39573 -10.38018 -0 0 14.81144 -19.24993 8.267916 9.137692 4.395863 -15.67351 -3.300619 -89.51423 26.06156 15.13759 0 0 -10.61862 -0.8284059 8.902603 13.99476
-1111.648 106.8368 2770.588 -6.359031 -6.734267 -50.01094 0.03998515 -11.34912 -0.03311172 -0 42.23794 -0 -3.81058 2.635284 -5.697683 -5.300822 6.366445 -9.125673 -0 15.66306 -0 -2.2388 -16.34823 17.2894 -1.75314 1.644444 3.893133 -0.126372 7.891682 -4.25412 3.397569 25.12336 3.804738 0.9046356 -14.54557 7.872323 -0.3138727 -15.37351 9.439145 88.15027 21.66786 -12.59033 -0 0 12.24789 -18.56742 8.281887 8.462848 4.686701 -16.89494 -3.556482 -87.66659 26.05034 11.92867 0 0 -13.29534 0.394681 9.799521 12.50801
-1115.779 106.3701 2774.384 -5.883556 -6.564763 -49.24128 -0.1675904 -15.75869 -1.17783 -0 33.01367 -0 -3.98841 1.458167 -5.871607 -5.262336 9.627213 -8.62152 -0 14.59521 -0 -2.374881 -17.79219 16.18465 -1.857287 1.469423 3.129373 0.1586378 7.983843 -4.895781 3.418724 25.25031 3.745105 0.9404277 -14.52743 7.815763 -0.2383166 -14.49383 9.463339 89.32057 21.80076 -14.67536 -0 0 9.864839 -17.92963 8.289138 7.857456 4.995536 -18.08025 -3.777426 -85.93524 25.89465 8.890838 0 0 -15.97507 1.632095 10.66398 11.00322
-1120.147 105.4697 2778.287 -5.321674 -6.408421 -48.62809 -0.2855933 -19.01588 -2.247365 -0 24.17526 -0 -3.970617 0.8529099 -5.977832 -5.305723 12.47187 -8.055681 -0 14.72371 -0 -2.867999 -19.09034 15.05725 -1.937938 1.289552 2.45518 0.4311823 8.083971 -5.473168 3.436351 25.31901 3.688655 0.9860825 -14.60219 7.746873 -0.1997098 -13.77982 9.505826 90.34172 21.7988 -16.50903 -0 0 7.783639 -17.38363 8.27459 7.352841 5.295493 -19.1621 -3.959768 -84.45132 25.6283 6.25153 0 0 -18.46637 2.813451 11.44908 9.570678
-1124.825 104.359 2782.34 -4.832365 -6.224889 -48.14886 -0.1011928 -21.22929 -2.948184 -0 17.31004 -0 -3.899601 0.7569078 -6.087758 -5.368309 14.90886 -7.551136 -0 16.1651 -0 -3.417082 -19.89891 14.23116 -1.986208 1.118504 1.912845 0.6671934 8.198047 -5.946458 3.442376 25.34899 3.648651 1.039238 -14.76649 7.676175 -0.2105247 -13.27954 9.564397 91.17876 21.6845 -17.99114 -0 0 6.095102 -16.97416 8.225335 6.972418 5.556605 -20.08331 -4.107313 -83.31581 25.30565 4.201357 0 0 -20.57873 3.870529 12.12129 8.297606
-1129.836 103.2762 2786.543 -4.557796 -6.014106 -47.79502 0.4936471 -22.41948 -3.094022 -0 13.05824 -0 -3.920069 0.9449914 -6.235951 -5.358347 16.81555 -7.16203 -0 19.00414 -0 -3.785568 -19.90424 13.88813 -1.997182 0.9662509 1.530769 0.8446862 8.33343 -6.285454 3.430397 25.36397 3.634661 1.096263 -15.00689 7.613133 -0.2796254 -13.02259 9.635274 91.82053 21.48903 -19.0555 -0 0 4.855498 -16.73833 8.133745 6.732694 5.751855 -20.80328 -4.22828 -82.59017 24.98291 2.870983 0 0 -22.14807 4.748591 12.66606 7.25346
-1135.162 102.4359 2790.872 -4.597162 -5.823782 -47.58933 1.477496 -22.47054 -2.673617 -0 11.30741 -0 -4.138201 1.152243 -6.42868 -5.202866 17.97597 -6.87468 -0 23.33111 -0 -3.954039 -18.94023 14.00154 -1.970041 0.8368226 1.321186 0.9472782 8.497483 -6.47229 3.396994 25.38425 3.650738 1.153501 -15.30533 7.563835 -0.4108099 -13.02098 9.714213 92.2726 21.24257 -19.66951 -0 0 4.090405 -16.70231 8.000195 6.645541 5.86279 -21.30048 -4.331446 -82.29949 24.70047 2.32573 0 0 -23.05607 5.414414 13.08751 6.479882
-1140.733 102.0068 2795.273 -4.986507 -5.722699 -47.58491 2.713361 -21.23974 -1.82549 -0 11.51411 -0 -4.597913 1.149828 -6.655328 -4.876776 18.12423 -6.645986 -0 29.15144 -0 -4.067907 -17.05868 14.41957 -1.90682 0.7276958 1.281776 0.9658802 8.696767 -6.501036 3.341789 25.42078 3.696078 1.208733 -15.64502 7.530224 -0.6020769 -13.27347 9.797626 92.54739 20.96794 -19.82738 -0 0 3.803906 -16.88127 7.83482 6.720979 5.882954 -21.57107 -4.423114 -82.44359 24.4721 2.575855 0 0 -23.2375 5.858987 13.40369 5.987742
-1146.433 102.0885 2799.672 -5.677742 -5.766793 -47.84348 3.981942 -18.72066 -0.7714084 -0 12.91441 -0 -5.259793 0.8025104 -6.875715 -4.410844 16.99033 -6.438883 -0 36.20413 -0 -4.262396 -14.54942 14.9924 -1.810668 0.6302425 1.399122 0.8986406 8.937106 -6.375726 3.266644 25.47212 3.767264 1.262442 -16.01461 7.510711 -0.8452219 -13.77042 9.883351 92.65642 20.67853 -19.54257 -0 0 3.98785 -17.28145 7.658743 6.969368 5.81897 -21.62625 -4.505956 -83.00736 24.2819 3.591275 0 0 -22.67833 6.096153 13.6406 5.759416
-1152.109 102.6816 2803.983 -6.535543 -5.976549 -48.39656 5.043086 -15.12386 0.2593504 -0 14.63884 -0 -5.995259 0.09286866 -6.999611 -3.872698 14.37563 -6.236491 -0 43.76893 -0 -4.541005 -11.88602 15.63382 -1.684573 0.5306113 1.651721 0.7500979 9.224112 -6.108873 3.174693 25.52378 3.860746 1.318566 -16.40892 7.501518 -1.124925 -14.49588 9.97096 92.60702 20.37931 -18.84473 -0 0 4.626764 -17.90204 7.505157 7.401821 5.690082 -21.49063 -4.579646 -83.9637 24.08697 5.309595 0 0 -21.41228 6.159339 13.82653 5.753472
